<svg xmlns="http://www.w3.org/2000/svg" viewBox="0 0 64 64" id="mushroom">
  <path fill="#deeaf0" d="M56,34c.141.75,8.216,25.331-24,26C-.217,59.331,7.858,34.75,8,34Z"></path>
  <path fill="#c64635" d="M32,34H57a5.059,5.059,0,0,0,5-5.115h0c0-11.177-6.769-17.507-13.876-21.072a36,36,0,0,0-32.248,0C8.769,11.378,2,17.708,2,28.885H2A5.059,5.059,0,0,0,7,34H32"></path>
  <path fill="#70281e" d="M29.062,34a8,8,0,1,1,15.876,0Z"></path>
  <circle cx="11" cy="26" r="4" fill="#70281e"></circle>
  <rect width="18" height="4" x="23" y="50" fill="#595a5d" rx="2"></rect>
  <rect width="5" height="8" x="20" y="38" fill="#595a5d" rx="1"></rect>
  <rect width="5" height="8" x="39" y="38" fill="#595a5d" rx="1"></rect>
  <path d="M56.481,36c-.231-1.146-.457-1.88-.48-2H8c-.023.12-.249.854-.48,2Z" opacity=".1"></path>
  <path fill="#70281e" d="M48.124 7.812c-.069-.034-.14-.063-.209-.1a7 7 0 109.9 7.9A26.943 26.943 0 0048.124 7.812zM31.158 4.024A35.942 35.942 0 0015.876 7.812c-.538.271-1.073.562-1.6.865A10 10 0 1031.158 4.024z"></path>
</svg>
